<svg width="1975" height="858" viewBox="0 0 1975 858" fill="none" xmlns="http://www.w3.org/2000/svg">
<path d="M6 0H1926V603C1926 603 1427 900 931.5 603C436 306 6 603 6 603V0Z" fill="#F7C948"/>
<line x1="519" y1="789.5" x2="1447" y2="789.5" stroke="#CFCFCF" stroke-opacity="0.36"/>
<path d="M1097.5 696.5L1316 768.5C1270.2 784.869 398.641 778.43 254.844 756.605C111.046 734.78 0 756.605 0 756.605V636.567C0 636.567 128.18 556.541 254.844 636.567C381.508 716.592 1097.5 696.5 1097.5 696.5Z" fill="#F9E59D"/>
<ellipse cx="1145.19" cy="504.279" rx="162.192" ry="157.279" fill="#0BD7B2"/>
<ellipse cx="1084.19" cy="311.279" rx="162.192" ry="157.279" fill="#0BD7B2"/>
<ellipse cx="1263.19" cy="271.279" rx="162.192" ry="157.279" fill="#0BD7B2"/>
<ellipse cx="1534.19" cy="240.279" rx="162.192" ry="157.279" fill="#0BD7B2"/>
<ellipse cx="1696.19" cy="281.279" rx="162.192" ry="157.279" fill="#0BD7B2"/>
<ellipse cx="1812.19" cy="497.279" rx="162.192" ry="157.279" fill="#0BD7B2"/>
<ellipse cx="1630.19" cy="477.279" rx="162.192" ry="157.279" fill="#0BD7B2"/>
<ellipse cx="1709.19" cy="666.279" rx="162.192" ry="157.279" fill="#0BD7B2"/>
<ellipse cx="1567.19" cy="700.279" rx="162.192" ry="157.279" fill="#0BD7B2"/>
<ellipse cx="1316.19" cy="700.279" rx="162.192" ry="157.279" fill="#0BD7B2"/>
<ellipse cx="1084.19" cy="655.279" rx="162.192" ry="157.279" fill="#0BD7B2"/>
<ellipse cx="1420.07" cy="468.983" rx="162.192" ry="157.279" fill="#0BD7B2"/>
<path opacity="0.968" d="M162.836 425.129C196.452 428.511 215.151 414.766 228.649 393.002C222.924 364.498 172.985 335.334 149.056 322.687" stroke="black" stroke-width="1.08346"/>
<path opacity="0.99" d="M279.609 409.185C289.089 409.185 296.775 401.5 296.775 392.021C296.775 382.541 289.089 374.856 279.609 374.856C270.129 374.856 262.443 382.541 262.443 392.021C262.443 401.5 270.129 409.185 279.609 409.185Z" stroke="#2D0000" stroke-width="1.13431"/>
<path opacity="0.99" d="M203.972 407.575C213.453 407.575 221.138 399.891 221.138 390.411C221.138 380.932 213.453 373.247 203.972 373.247C194.492 373.247 186.807 380.932 186.807 390.411C186.807 399.891 194.492 407.575 203.972 407.575Z" stroke="#2D0000" stroke-width="1.13431"/>
<path opacity="0.968" d="M321.815 427.91C286.384 431.292 266.676 417.547 252.449 395.783C258.483 367.279 310.143 349.99 335.364 337.343" stroke="black" stroke-width="1.11233"/>
<path opacity="0.99" d="M206.932 396.945C210.412 396.945 213.233 394.124 213.233 390.645C213.233 387.166 210.412 384.345 206.932 384.345C203.453 384.345 200.632 387.166 200.632 390.645C200.632 394.124 203.453 396.945 206.932 396.945Z" stroke="#2D0000" stroke-width="0.416335"/>
<path opacity="0.99" d="M277.674 399.03C281.154 399.03 283.975 396.21 283.975 392.73C283.975 389.251 281.154 386.431 277.674 386.431C274.195 386.431 271.374 389.251 271.374 392.73C271.374 396.21 274.195 399.03 277.674 399.03Z" stroke="#2D0000" stroke-width="0.416335"/>
<path opacity="0.99" d="M201.736 406.232C195.26 405.2 190.245 400.677 188.473 394.273C187.996 392.549 187.996 388.229 188.473 386.498C190.446 379.323 196.671 374.506 203.954 374.516C208.213 374.516 211.824 375.951 214.99 378.881C217.182 380.911 219.112 384.475 219.679 387.542C219.975 389.146 219.932 391.974 219.584 393.665C218.573 398.585 214.958 403.028 210.31 405.066C207.981 406.086 204.119 406.612 201.738 406.232H201.736ZM209.268 397.021C211.522 396.226 213.208 394.165 213.588 391.742C214.519 385.807 208.038 381.728 203.051 385.11C201.849 385.925 200.674 387.605 200.344 388.979C200.043 390.238 200.203 392.201 200.704 393.366C201.179 394.472 202.421 395.845 203.54 396.5C205.208 397.478 207.406 397.678 209.268 397.02L209.268 397.021Z" fill="#FFFF00"/>
<path opacity="0.99" d="M276.4 407.667C271.357 406.496 267.376 403.345 265.228 398.824C264.188 396.636 263.87 395.328 263.748 392.745C263.52 387.908 265.217 383.732 268.755 380.43C271.742 377.641 274.804 376.337 278.866 376.126C288.236 375.638 296.032 383.47 295.498 392.838C295.369 395.083 294.984 396.703 294.134 398.563C292.155 402.893 288.274 406.207 283.702 407.471C282.213 407.883 277.836 408 276.4 407.667V407.667ZM280.01 399.107C282.264 398.311 283.95 396.251 284.33 393.828C285.261 387.893 278.779 383.814 273.793 387.196C272.591 388.011 271.416 389.691 271.086 391.065C270.784 392.324 270.945 394.287 271.446 395.452C271.92 396.557 273.163 397.931 274.281 398.586C275.95 399.564 278.148 399.764 280.01 399.107L280.01 399.107Z" fill="#FFFF00"/>
<path opacity="0.99" d="M237.058 438.217C237.058 436.961 236.301 432.758 235.376 428.875C233.252 419.962 233.052 414.603 234.741 411.893C235.385 410.861 236.612 409.603 237.47 409.098C238.962 408.22 239.12 408.228 241.128 409.289C245.522 411.609 248.214 415.457 248.693 420.1C248.99 422.972 248.964 423.036 245.248 428.573C243.189 431.642 240.504 435.581 239.281 437.326L237.058 440.499L237.058 438.217Z" fill="#00486B" fill-opacity="0.992157"/>
<path opacity="0.99" d="M164.855 422.486C165.283 420.351 166.713 411.747 168.907 398.101C171.355 382.876 173.66 375.667 178.413 368.375C182.119 362.688 186.743 359.033 193.667 356.317L197.322 354.883L201.001 357.892C213.544 368.153 222.965 379.929 226.15 389.33L227.32 392.782L224.545 396.793C221.029 401.875 213.686 409.658 209.163 413.096C207.246 414.554 203.263 416.92 200.312 418.355C191.629 422.579 183.707 424.201 171.68 424.219L164.506 424.247L164.855 422.486ZM211.845 407.087C215.54 405.175 217.535 403.468 219.282 400.722C225.918 390.294 221.552 377.074 210.108 372.941C206.732 371.722 200.938 371.862 197.254 373.251C193.278 374.75 189.413 378.268 187.419 382.205C185.985 385.033 185.83 385.844 185.837 390.438C185.845 394.744 186.049 395.949 187.157 398.215C189.019 402.02 193.286 406.121 196.844 407.525C200.924 409.134 208.308 408.919 211.845 407.088V407.087Z" fill="#A3BBC7" fill-opacity="0.984314"/>
<path opacity="0.99" d="M299.016 426.129C290.026 424.712 281.336 421.455 274.557 416.963C269.315 413.489 261.947 406.344 257.452 400.376L253.827 395.563L254.814 392.694C257.926 383.65 267.684 373.711 281.936 365.07C289.289 360.612 296.852 356.646 298.001 356.646C299.401 356.646 306.583 360.298 309.087 362.283C312.713 365.157 313.785 367.273 314.571 373.102C314.962 375.999 315.912 382.647 316.681 387.875C317.869 395.936 319.056 414.2 319.123 425.437L319.131 426.912L311.218 426.856C306.867 426.823 301.375 426.499 299.015 426.126L299.016 426.129ZM287.482 408.697C291.177 406.784 293.172 405.077 294.919 402.331C301.555 391.903 297.189 378.683 285.745 374.55C282.37 373.331 276.575 373.471 272.891 374.86C268.915 376.359 265.05 379.877 263.056 383.814C261.622 386.642 261.467 387.453 261.474 392.047C261.482 396.353 261.686 397.558 262.794 399.825C264.656 403.629 268.923 407.73 272.481 409.134C276.561 410.743 283.945 410.528 287.482 408.697V408.697Z" fill="#A4BBC7" fill-opacity="0.976471"/>
<path opacity="0.99" d="M66.4786 712.937C66.4786 712.716 70.7293 707.949 75.9182 702.344C106.857 668.923 136.209 634.275 163.39 599.09C199.721 552.061 220.739 516.51 221.777 500.173C219.553 475.963 183.881 466.7 169.104 469.736C159.917 471.011 147.782 482.085 138.817 490.662C135.317 494.011 132.454 496.522 132.454 496.244C132.454 495.642 140.391 482.895 147.583 471.947C154.431 461.522 159.362 452.932 160.615 449.246C161.181 447.583 161.91 446.223 162.236 446.223C162.562 446.223 164.987 446.958 167.623 447.857C213.832 463.605 243.236 463.265 294.723 446.388C302.238 443.925 314.605 439.553 318.728 437.902C319.598 437.554 319.666 438.131 319.662 445.763C319.646 469.815 315.682 502.242 309.512 528.73C289.152 616.151 252.524 661.303 180.722 687.493C159.744 695.145 133.999 701.295 87.2041 709.832C67.133 713.494 66.4703 713.593 66.4786 712.939V712.937Z" fill="#00486B"/>
<path opacity="0.968" d="M189.749 337.557C206.78 346.926 225.126 355.215 246.074 359.549C272.205 355.904 286.78 351.975 309.104 342.653" stroke="black" stroke-width="1.08346"/>
<path opacity="0.99" d="M60.8467 714.01C61.0505 713.42 62.7339 708.942 64.5872 704.059C71.6465 685.458 77.3706 665.169 86.2941 627.116C99.3699 571.357 101.673 555.935 115.149 528.499C117.941 520.049 128.31 506.626 134.396 500.538C144.3 490.631 154.91 482.041 161.003 479.215C179.46 472.674 207.147 481.425 209.916 501.184C215.288 517.461 181.701 568.57 114.039 648.194C91.7731 674.396 59.8577 716.869 60.8467 714.01V714.01Z" fill="#A4BBC7" fill-opacity="0.976471"/>
<path opacity="0.99" d="M204.716 395.895C203.276 395.243 202.459 394.504 201.855 393.308C200.751 391.121 201.011 388.852 202.575 387.025C204.945 384.257 208.929 384.263 211.305 387.052C213.24 389.313 213.075 392.816 210.94 394.806C210.021 395.662 208.112 396.442 206.934 396.442C206.36 396.442 205.362 396.202 204.716 395.91V395.895Z" fill="black" fill-opacity="0.992157"/>
<path opacity="0.99" d="M275.28 397.9C273.189 396.926 272 395.095 271.981 392.817C271.953 389.604 274.471 387.045 277.66 387.045C281.968 387.045 284.693 391.526 282.739 395.396C282.135 396.592 281.318 397.33 279.878 397.983C278.328 398.686 276.912 398.66 275.28 397.9V397.9Z" fill="black" fill-opacity="0.992157"/>
<path opacity="0.99" d="M210.228 390.74C211.129 390.74 211.859 390.097 211.859 389.305C211.859 388.512 211.129 387.869 210.228 387.869C209.327 387.869 208.597 388.512 208.597 389.305C208.597 390.097 209.327 390.74 210.228 390.74Z" fill="white" fill-opacity="0.992157"/>
<path opacity="0.99" d="M281.019 392.566C281.92 392.566 282.65 391.924 282.65 391.131C282.65 390.339 281.92 389.696 281.019 389.696C280.118 389.696 279.388 390.339 279.388 391.131C279.388 391.924 280.118 392.566 281.019 392.566Z" fill="white" fill-opacity="0.992157"/>
</svg>
